<?xml version="1.0" encoding="UTF-8" standalone="no"?>
<svg
   xmlns:dc="http://purl.org/dc/elements/1.1/"
   xmlns:cc="http://creativecommons.org/ns#"
   xmlns:rdf="http://www.w3.org/1999/02/22-rdf-syntax-ns#"
   xmlns:svg="http://www.w3.org/2000/svg"
   xmlns="http://www.w3.org/2000/svg"
   xmlns:sodipodi="http://sodipodi.sourceforge.net/DTD/sodipodi-0.dtd"
   xmlns:inkscape="http://www.inkscape.org/namespaces/inkscape"
   id="Image"
   width="139.299"
   height="139.299"
   viewBox="0 0 139.299 139.299"
   version="1.1"
   sodipodi:docname="Image.svg"
   inkscape:version="1.0.2 (e86c870879, 2021-01-15)">
  <metadata
     id="metadata1576">
    <rdf:RDF>
      <cc:Work
         rdf:about="">
        <dc:format>image/svg+xml</dc:format>
        <dc:type
           rdf:resource="http://purl.org/dc/dcmitype/StillImage" />
      </cc:Work>
    </rdf:RDF>
  </metadata>
  <sodipodi:namedview
     pagecolor="#ffffff"
     bordercolor="#666666"
     borderopacity="1"
     objecttolerance="10"
     gridtolerance="10"
     guidetolerance="10"
     inkscape:pageopacity="0"
     inkscape:pageshadow="2"
     inkscape:window-width="1848"
     inkscape:window-height="1016"
     id="namedview1574"
     showgrid="false"
     inkscape:zoom="3.6181165"
     inkscape:cx="72.108962"
     inkscape:cy="97.446891"
     inkscape:window-x="0"
     inkscape:window-y="0"
     inkscape:window-maximized="1"
     inkscape:current-layer="Image" />
  <defs
     id="defs1568">
    <style
       id="style1566">
      .cls-1 {
        fill: #505050;
      }

      .cls-2 {
        fill: #fff;
      }
    </style>
  </defs>
  <path
     id="Ellipse_22"
     style="stroke-width:0.999825"
     d="M 69.830078 18.185547 A 51.490987 51.490987 0 0 0 45.474609 24.203125 A 51.490987 51.490987 0 0 0 24.154297 93.830078 A 51.490987 51.490987 0 0 0 93.78125 115.15234 A 51.490987 51.490987 0 0 0 115.10156 45.523438 A 51.490987 51.490987 0 0 0 69.830078 18.185547 z M 89.402344 41.001953 C 93.448467 40.916973 97.431172 42.782344 99.685547 47.167969 C 103.29255 54.184969 112.22656 69.796875 112.22656 69.796875 L 107.96094 72.130859 C 107.96094 72.130859 98.501563 52.747564 95.726562 49.351562 C 92.951563 45.955562 90.07225 44.123969 84.78125 46.292969 C 79.49025 48.461969 79.424064 54.608234 79.789062 57.240234 C 80.154062 59.872234 91.863281 80.582031 91.863281 80.582031 L 87.759766 83.238281 C 87.759766 83.238281 77.160938 61.901344 75.085938 59.652344 C 73.010936 57.403344 69.19425 54.100234 63.53125 57.240234 C 57.86825 60.380234 59.425781 68.025391 59.425781 68.025391 L 71.177734 91.931641 L 67.154297 94.105469 L 49.6875 61.425781 L 53.306641 59.255859 L 56.6875 64.246094 A 11.492 11.492 0 0 1 58.849609 56.945312 A 10.832 10.832 0 0 1 69.050781 51.845703 A 14.762 14.762 0 0 1 76.650391 54.90625 C 76.650391 54.90625 76.774156 46.689672 82.410156 43.138672 C 84.523656 41.807047 86.97467 41.052941 89.402344 41.001953 z M 31.255859 53.777344 L 55.804688 99.578125 L 51.296875 102.1543 L 27.068359 56.353516 L 31.255859 53.777344 z " />
</svg>
