<?xml version="1.0" encoding="UTF-8" standalone="no"?>
<svg
   xmlns:dc="http://purl.org/dc/elements/1.1/"
   xmlns:cc="http://creativecommons.org/ns#"
   xmlns:rdf="http://www.w3.org/1999/02/22-rdf-syntax-ns#"
   xmlns:svg="http://www.w3.org/2000/svg"
   xmlns="http://www.w3.org/2000/svg"
   xmlns:sodipodi="http://sodipodi.sourceforge.net/DTD/sodipodi-0.dtd"
   xmlns:inkscape="http://www.inkscape.org/namespaces/inkscape"
   width="100.516"
   height="101.284"
   viewBox="0 0 100.516 101.284"
   version="1.1"
   id="svg80"
   sodipodi:docname="logoPlaceholder.svg"
   inkscape:version="1.0.2 (e86c870879, 2021-01-15)">
  <metadata
     id="metadata84">
    <rdf:RDF>
      <cc:Work
         rdf:about="">
        <dc:format>image/svg+xml</dc:format>
        <dc:type
           rdf:resource="http://purl.org/dc/dcmitype/StillImage" />
        <dc:title></dc:title>
      </cc:Work>
    </rdf:RDF>
  </metadata>
  <sodipodi:namedview
     pagecolor="#ffffff"
     bordercolor="#666666"
     borderopacity="1"
     objecttolerance="10"
     gridtolerance="10"
     guidetolerance="10"
     inkscape:pageopacity="0"
     inkscape:pageshadow="2"
     inkscape:window-width="1848"
     inkscape:window-height="1016"
     id="namedview82"
     showgrid="false"
     inkscape:zoom="5.745714"
     inkscape:cx="48.692151"
     inkscape:cy="52.948065"
     inkscape:window-x="0"
     inkscape:window-y="0"
     inkscape:window-maximized="1"
     inkscape:current-layer="Group_31" />
  <g
     id="Group_31"
     data-name="Group 31"
     transform="matrix(0.891, -0.454, 0.454, 0.891, -657.437, -69.746)">
    <path
       id="Path_90"
       style="stroke-width:0.999999"
       d="M 54.310547 13.349609 C 53.790444 13.34357 53.273207 13.347769 52.761719 13.361328 C 50.306574 13.426411 47.969759 13.704796 45.939453 14.078125 A 42.065937 42.065937 0 0 0 26.009766 23.621094 C 18.470465 29.919451 15.783203 39.269531 15.783203 39.269531 L 28.322266 40.167969 L 29.648438 45.681641 C 29.648438 45.681641 26.907673 44.442366 23.328125 43.095703 C 19.748577 41.74904 15.330078 40.294922 15.330078 40.294922 C 15.330078 40.294922 10.936352 52.450709 15.414062 65.167969 C 19.891774 77.885229 32.21875 85.746094 32.21875 85.746094 A 19.79997 19.79997 0 0 1 36.869141 82.269531 A 30.387954 30.387954 0 0 1 42.078125 80.246094 A 15.645977 15.645977 0 0 0 40.458984 73.298828 A 16.869975 16.869975 0 0 0 35.292969 68.134766 L 33.935547 57.513672 L 25.154297 65.308594 L 21.318359 64.355469 L 32.572266 55.359375 L 33.212891 51.595703 L 37.919922 53.222656 A 8.6319871 8.6319871 0 0 0 36.662109 56.537109 A 26.306961 26.306961 0 0 0 36.601562 61.386719 C 36.660515 64.081701 37.042969 67.244141 37.042969 67.244141 C 37.042969 67.244141 41.801906 70.172831 42.533203 71.654297 C 43.2645 73.135763 43.998047 79.746094 43.998047 79.746094 L 61.566406 75.382812 C 61.566406 75.382812 78.114431 71.71263 79.800781 70.929688 C 83.292472 69.308781 89.660156 64.683594 89.660156 64.683594 C 89.660156 64.683594 92.794234 53.728302 90.830078 44.265625 C 88.865922 34.802948 84.402803 29.814009 80.517578 25.261719 C 76.632353 20.709429 71.375803 17.964943 65.160156 15.363281 C 61.760975 13.940498 57.951268 13.391888 54.310547 13.349609 z M 52.357422 21.736328 L 57.207031 22.78125 C 57.207031 22.78125 56.027734 23.017187 51.238281 26.355469 C 46.448828 29.693751 38.041016 36.136719 38.041016 36.136719 L 33.226562 35.535156 C 33.226562 35.535156 38.239307 32.502782 43.023438 29.052734 C 47.807567 25.602686 52.357422 21.736328 52.357422 21.736328 z M 63.363281 31.179688 L 68.46875 32.056641 L 54.533203 40.916016 L 59.099609 42.828125 L 59.353516 46.099609 C 59.353516 46.099609 64.317499 58.81888 67.589844 60.40625 C 70.862189 61.99362 77.433204 57.538614 78.039062 55.580078 C 78.644922 53.621542 72.841797 44.230469 72.841797 44.230469 L 73.902344 43.689453 C 73.902344 43.689453 79.25767 51.96686 80.316406 53.339844 A 8.4939873 8.4939873 0 0 0 82.712891 55.435547 C 82.712891 55.435547 81.430016 57.435821 77.492188 60.082031 C 73.554357 62.728241 70.732688 64.97586 66.578125 63.115234 C 64.299806 62.095439 61.484712 56.462244 58.953125 51.306641 C 57.030238 47.389698 55.179617 43.762601 54.896484 43.345703 A 4.5999931 4.5999931 0 0 0 53.265625 41.943359 L 47.755859 45.896484 L 51.880859 47.84375 A 7.7999883 7.7999883 0 0 0 51.4375 51.099609 A 42.399936 42.399936 0 0 1 52.669922 64.123047 A 39.283941 39.283941 0 0 1 49.115234 76.681641 L 48.962891 76.658203 L 47.742188 76.464844 A 41.534938 41.534938 0 0 0 50.25 63.841797 A 51.748922 51.748922 0 0 0 48.273438 50.21875 L 46.417969 46.578125 L 41.21875 51.367188 L 36.517578 50.091797 A 70.947894 70.947894 0 0 0 46.152344 44.037109 C 52.863246 39.308999 63.363281 31.179687 63.363281 31.179688 z M 88.482422 67.580078 L 81.595703 74.681641 L 69.080078 76.369141 C 69.080078 76.369141 45.303812 81.201988 41.125 83.269531 A 16.742975 16.742975 0 0 0 35.357422 87.46875 C 35.357422 87.46875 39.560159 90.291504 48.630859 91.476562 C 57.701559 92.661621 68.46247 89.348031 77.369141 82.605469 C 86.275812 75.862907 88.482422 67.580078 88.482422 67.580078 z "
       transform="matrix(0.89100267,0.45400136,-0.45400136,0.89100267,554.11335,360.62117)" />
  </g>
</svg>
