<?xml version="1.0" encoding="UTF-8" standalone="no"?>
<svg
   xmlns:dc="http://purl.org/dc/elements/1.1/"
   xmlns:cc="http://creativecommons.org/ns#"
   xmlns:rdf="http://www.w3.org/1999/02/22-rdf-syntax-ns#"
   xmlns:svg="http://www.w3.org/2000/svg"
   xmlns="http://www.w3.org/2000/svg"
   xmlns:sodipodi="http://sodipodi.sourceforge.net/DTD/sodipodi-0.dtd"
   xmlns:inkscape="http://www.inkscape.org/namespaces/inkscape"
   width="139.299"
   height="139.299"
   viewBox="0 0 139.299 139.299"
   version="1.1"
   id="svg10"
   sodipodi:docname="Markdown.svg"
   inkscape:version="1.0.2 (e86c870879, 2021-01-15)">
  <metadata
     id="metadata14">
    <rdf:RDF>
      <cc:Work
         rdf:about="">
        <dc:format>image/svg+xml</dc:format>
        <dc:type
           rdf:resource="http://purl.org/dc/dcmitype/StillImage" />
      </cc:Work>
    </rdf:RDF>
  </metadata>
  <sodipodi:namedview
     pagecolor="#ffffff"
     bordercolor="#666666"
     borderopacity="1"
     objecttolerance="10"
     gridtolerance="10"
     guidetolerance="10"
     inkscape:pageopacity="0"
     inkscape:pageshadow="2"
     inkscape:window-width="1848"
     inkscape:window-height="1016"
     id="namedview12"
     showgrid="false"
     inkscape:zoom="7.2362331"
     inkscape:cx="69.649498"
     inkscape:cy="69.649498"
     inkscape:window-x="0"
     inkscape:window-y="0"
     inkscape:window-maximized="1"
     inkscape:current-layer="Markdown" />
  <defs
     id="defs4">
    <style
       id="style2">
      .cls-1 {
        fill: #505050;
      }

      .cls-2 {
        fill: #fff;
      }
    </style>
  </defs>
  <g
     id="Markdown"
     transform="translate(0 0)">
    <path
       id="Ellipse_21"
       style="stroke-width:0.999825"
       d="M 69.830078 18.185547 A 51.490987 51.490987 0 0 0 45.474609 24.203125 A 51.490987 51.490987 0 0 0 24.154297 93.830078 A 51.490987 51.490987 0 0 0 93.78125 115.15234 A 51.490987 51.490987 0 0 0 115.10156 45.523438 A 51.490987 51.490987 0 0 0 69.830078 18.185547 z M 98.574219 38.054688 L 100.26562 41.597656 C 100.26562 41.597656 95.727936 40.569766 93.585938 48.009766 C 91.443938 55.449766 103.56445 73.392578 103.56445 73.392578 L 100.26367 75.324219 L 84.326172 45.863281 L 87.707031 43.931641 L 91.248047 50.289062 C 91.248047 50.289062 90.336531 45.773047 92.769531 42.373047 A 11.716 11.716 0 0 1 98.574219 38.054688 z M 68.376953 45.421875 L 88.234375 82.177734 L 84.923828 83.990234 L 68.375 52.089844 L 71.611328 91.455078 L 69.625 92.498047 L 38.802734 68.039062 L 56.285156 99.431641 L 52.617188 101.24219 L 32.902344 64.996094 L 37.148438 62.457031 L 67.65625 86.599609 L 64.5625 47.742188 L 68.376953 45.421875 z " />
  </g>
</svg>
