<?xml version="1.0" encoding="UTF-8" standalone="no"?>
<svg
   xmlns:dc="http://purl.org/dc/elements/1.1/"
   xmlns:cc="http://creativecommons.org/ns#"
   xmlns:rdf="http://www.w3.org/1999/02/22-rdf-syntax-ns#"
   xmlns:svg="http://www.w3.org/2000/svg"
   xmlns="http://www.w3.org/2000/svg"
   xmlns:sodipodi="http://sodipodi.sourceforge.net/DTD/sodipodi-0.dtd"
   xmlns:inkscape="http://www.inkscape.org/namespaces/inkscape"
   id="Text"
   width="139.299"
   height="139.299"
   viewBox="0 0 139.299 139.299"
   version="1.1"
   sodipodi:docname="Text.svg"
   inkscape:version="1.0.2 (e86c870879, 2021-01-15)">
  <metadata
     id="metadata953">
    <rdf:RDF>
      <cc:Work
         rdf:about="">
        <dc:format>image/svg+xml</dc:format>
        <dc:type
           rdf:resource="http://purl.org/dc/dcmitype/StillImage" />
      </cc:Work>
    </rdf:RDF>
  </metadata>
  <sodipodi:namedview
     pagecolor="#ffffff"
     bordercolor="#666666"
     borderopacity="1"
     objecttolerance="10"
     gridtolerance="10"
     guidetolerance="10"
     inkscape:pageopacity="0"
     inkscape:pageshadow="2"
     inkscape:window-width="1848"
     inkscape:window-height="1016"
     id="namedview951"
     showgrid="false"
     inkscape:zoom="3.6181165"
     inkscape:cx="81.988487"
     inkscape:cy="91.598236"
     inkscape:window-x="0"
     inkscape:window-y="0"
     inkscape:window-maximized="1"
     inkscape:current-layer="Text" />
  <defs
     id="defs945">
    <style
       id="style943">
      .cls-1 {
        fill: #505050;
      }

      .cls-2 {
        fill: #fff;
      }
    </style>
  </defs>
  <path
     id="Ellipse_20"
     style="stroke-width:0.999825"
     d="M 69.830078 18.185547 A 51.490987 51.490987 0 0 0 45.474609 24.203125 A 51.490987 51.490987 0 0 0 24.154297 93.830078 A 51.490987 51.490987 0 0 0 93.78125 115.15234 A 51.490987 51.490987 0 0 0 115.10156 45.523438 A 51.490987 51.490987 0 0 0 69.830078 18.185547 z M 61.007812 46.408203 L 63.203125 50.511719 L 49.646484 57.576172 L 71.832031 99.341797 L 67.763672 101.75781 L 45.183594 59.296875 L 32.103516 66.691406 L 30.193359 62.585938 L 61.007812 46.408203 z M 91.630859 46.421875 L 89.458984 69.462891 L 108.50195 79.691406 L 103.22461 82.328125 L 87.734375 73.199219 L 87.029297 91.294922 L 81.791016 94.189453 L 84.365234 71.589844 L 65.029297 60.953125 L 69.537109 58.207031 L 85.722656 68.03125 L 87.050781 49.130859 L 91.630859 46.421875 z " />
</svg>
